<?xml version="1.0" encoding="utf-8"?>
<!-- Generator: Adobe Illustrator 24.1.2, SVG Export Plug-In . SVG Version: 6.00 Build 0)  -->
<svg version="1.1" xmlns="http://www.w3.org/2000/svg" xmlns:xlink="http://www.w3.org/1999/xlink" x="0px" y="0px"
	 viewBox="0 0 100 125" style="enable-background:new 0 0 100 125;" xml:space="preserve">
<style type="text/css">
	.st0{fill:#5850EC;}
	.st1{fill:#FFFFFF;}
</style>
<g id="Layer_2">
	<circle class="st0" cx="50" cy="53.9" r="48.2"/>
</g>
<g id="Layer_1">
	<g>
		<g>
			<path class="st1" d="M85.9,61.2c-0.5-2-1-4-1.6-6.1c-4.4-17.8-9.5-37.9-33-37.9h-1.2c-15.5,0-28.2,12.6-28.2,28.2v38.1
				c0,0.7,0.5,1.2,1.2,1.2c0.7,0,1.2-0.5,1.2-1.2V45.3c0-14.2,11.6-25.8,25.8-25.8h1.2C73,19.5,77.6,37.9,82,55.7
				c0.4,1.6,0.8,3.1,1.2,4.7h-9.4c-0.7,0-1.2,0.5-1.2,1.2v21.9c0,0.7,0.5,1.2,1.2,1.2c0.7,0,1.2-0.5,1.2-1.2V62.7h9.7
				c0.4,0,0.7-0.2,1-0.5C86,61.9,86,61.6,85.9,61.2z"/>
			<path class="st1" d="M62.4,36.2c-0.5-0.4-1.3-0.4-1.7,0.1c-0.4,0.5-0.4,1.3,0.1,1.7c3.2,2.8,5,6.8,5,11c0,5.7-3.3,10.7-8.2,13.1
				v-4.3c0-0.4-0.3-0.9-0.6-1.1c-0.4-0.2-0.9-0.2-1.2,0.1l-9,6.4l-0.1,0.1l0,0c-0.1,0.1-0.2,0.1-0.2,0.2c0,0-0.1,0.1-0.1,0.1
				c-0.1,0.1-0.1,0.2-0.1,0.3c0,0,0,0,0,0.1c0,0,0,0,0,0c0,0.1,0,0.2,0,0.3c0,0,0,0.1,0,0.1c0,0,0,0,0,0.1c0,0.1,0.1,0.3,0.1,0.4
				c0,0.1,0.1,0.1,0.1,0.2c0,0.1,0.1,0.1,0.1,0.2c0,0,0.1,0.1,0.1,0.1l9.1,6.5c0.2,0.1,0.4,0.2,0.7,0.2c0.2,0,0.4,0,0.6-0.1
				c0.4-0.2,0.6-0.6,0.6-1.1v-6.1c6.2-2.5,10.6-8.6,10.6-15.7C68.2,44.1,66.1,39.4,62.4,36.2z M55.3,65.5v3l-3.5-2.5l-2.3-1.7
				l1.1-0.8l4.8-3.4V63V65.5z"/>
			<path class="st1" d="M55.7,34.7c0.1-0.1,0.2-0.1,0.2-0.2c0,0,0,0,0-0.1c0.1-0.1,0.1-0.2,0.2-0.4l0,0c0,0,0,0,0,0
				c0-0.1,0-0.2,0-0.3c0,0,0-0.1,0-0.1c0,0,0-0.1,0-0.1c0-0.1-0.1-0.3-0.1-0.4c0,0,0,0,0,0c-0.1-0.1-0.2-0.2-0.3-0.3c0,0,0,0,0,0
				c0,0,0,0,0,0l-9.1-6.5c-0.4-0.3-0.9-0.3-1.2-0.1c-0.4,0.2-0.7,0.6-0.7,1.1v6.2C38.6,36,34.4,42,34.4,49c0,3.1,0.8,6.1,2.4,8.7
				c1,1.6,2.2,3.1,3.7,4.3c0.2,0.2,0.5,0.3,0.8,0.3c0.3,0,0.7-0.1,0.9-0.4c0.4-0.5,0.4-1.3-0.2-1.7c-1.3-1.1-2.3-2.3-3.2-3.7
				c-1.3-2.2-2.1-4.8-2.1-7.5c0-5.6,3.2-10.5,7.9-12.9v4.1c0,0.4,0.3,0.9,0.7,1.1c0.2,0.1,0.4,0.1,0.5,0.1c0.2,0,0.5-0.1,0.7-0.2
				L55.7,34.7z M47.1,35.1v-2.5v-3.1l3.6,2.6l2.3,1.6l-1.1,0.8l-4.7,3.4V35.1z"/>
		</g>
	</g>
</g>
</svg>
