<?xml version="1.0" encoding="utf-8"?>
<!-- Generator: Adobe Illustrator 24.1.2, SVG Export Plug-In . SVG Version: 6.00 Build 0)  -->
<svg version="1.1" id="Layer_1" xmlns="http://www.w3.org/2000/svg" xmlns:xlink="http://www.w3.org/1999/xlink" x="0px" y="0px"
	 viewBox="0 0 2500 2500" style="enable-background:new 0 0 2500 2500;" xml:space="preserve">
<style type="text/css">
	.st0{fill-rule:evenodd;clip-rule:evenodd;}
</style>
<g>
	<path class="st0" d="M554.3,927c-128.2,150.5-251,337.1-252.3,476.6c-0.5,52.5,16.3,98.3,56.5,133c57.8,50,121.6,67.6,185,67.7
		c92.7,0.1,184.7-37.3,256.8-66.1c121.4-48.5,1462.9-631.1,1462.9-631.1c12.9-6.5,10.5-14.6-5.7-10.5
		c-6.5,1.6-1460.4,395.6-1460.4,395.6c-27.5,7.8-56,11.9-84.6,12.1c-111.7,0.7-211.2-61.4-210.4-192.1
		C502.4,1061.3,518.1,999.6,554.3,927L554.3,927z"/>
</g>
</svg>
